<svg width="20" height="20" viewBox="0 0 20 20" fill="none" xmlns="http://www.w3.org/2000/svg">
<path d="M5.80795 10.4425L12.058 16.6925C12.116 16.7506 12.185 16.7967 12.2608 16.8281C12.3367 16.8595 12.418 16.8757 12.5001 16.8757C12.5823 16.8757 12.6636 16.8595 12.7395 16.8281C12.8153 16.7967 12.8843 16.7506 12.9423 16.6925C13.0004 16.6345 13.0465 16.5655 13.0779 16.4897C13.1093 16.4138 13.1255 16.3325 13.1255 16.2503C13.1255 16.1682 13.1093 16.0869 13.0779 16.011C13.0465 15.9352 13.0004 15.8662 12.9423 15.8082L7.13373 10.0003L12.9423 4.19253C13.0596 4.07526 13.1255 3.9162 13.1255 3.75035C13.1255 3.5845 13.0596 3.42544 12.9423 3.30816C12.8251 3.19088 12.666 3.125 12.5001 3.125C12.3343 3.125 12.1752 3.19088 12.058 3.30816L5.80795 9.55816C5.74984 9.61621 5.70374 9.68514 5.67229 9.76101C5.64084 9.83688 5.62465 9.91821 5.62465 10.0003C5.62465 10.0825 5.64084 10.1638 5.67229 10.2397C5.70374 10.3156 5.74984 10.3845 5.80795 10.4425Z" fill="#888888"/>
</svg>
