<svg width="28" height="28" viewBox="0 0 28 28" fill="none" xmlns="http://www.w3.org/2000/svg">
<path d="M21.9592 5.89422C19.8414 3.79705 16.9805 2.62195 14 2.62501H13.883C10.8865 2.65584 8.02316 3.86787 5.91518 5.99776C3.8072 8.12766 2.62484 11.0033 2.625 14C2.625 18.7031 5.53219 22.6472 10.2113 24.2999C10.739 24.4859 11.3037 24.5427 11.8579 24.4655C12.4121 24.3883 12.9398 24.1793 13.3966 23.8561C13.8534 23.5329 14.226 23.1049 14.4833 22.6079C14.7405 22.111 14.8748 21.5596 14.875 21C14.875 20.5359 15.0594 20.0908 15.3876 19.7626C15.7158 19.4344 16.1609 19.25 16.625 19.25H21.6792C22.4732 19.2538 23.2445 18.986 23.8653 18.491C24.486 17.996 24.9188 17.3036 25.0917 16.5288C25.2873 15.6676 25.3824 14.7868 25.375 13.9038C25.3639 12.4091 25.0562 10.9315 24.4699 9.55664C23.8835 8.18176 23.0302 6.93691 21.9592 5.89422ZM23.3811 16.1438C23.2942 16.5298 23.0782 16.8746 22.7687 17.1212C22.4593 17.3678 22.0749 17.5015 21.6792 17.5H16.625C15.6967 17.5 14.8065 17.8688 14.1501 18.5251C13.4937 19.1815 13.125 20.0717 13.125 21C13.1246 21.2795 13.0572 21.5549 12.9286 21.803C12.7999 22.0512 12.6137 22.2649 12.3854 22.4263C12.1572 22.5877 11.8936 22.6921 11.6168 22.7307C11.34 22.7693 11.0579 22.7411 10.7942 22.6483C6.83484 21.2516 4.375 17.9375 4.375 14C4.37486 11.4644 5.37525 9.03126 7.15882 7.22905C8.94238 5.42685 11.365 4.40123 13.9005 4.37501H13.9989C16.5344 4.38485 18.9645 5.39086 20.765 7.17606C22.5656 8.96127 23.5924 11.3826 23.6239 13.918C23.6304 14.6666 23.5504 15.4135 23.3855 16.1438H23.3811ZM15.3125 8.31251C15.3125 8.57209 15.2355 8.82585 15.0913 9.04169C14.9471 9.25753 14.7421 9.42576 14.5023 9.5251C14.2624 9.62444 13.9985 9.65043 13.7439 9.59979C13.4893 9.54914 13.2555 9.42414 13.0719 9.24058C12.8884 9.05703 12.7634 8.82316 12.7127 8.56856C12.6621 8.31396 12.6881 8.05006 12.7874 7.81023C12.8867 7.57041 13.055 7.36542 13.2708 7.2212C13.4867 7.07698 13.7404 7.00001 14 7.00001C14.3481 7.00001 14.6819 7.13829 14.9281 7.38443C15.1742 7.63057 15.3125 7.96441 15.3125 8.31251ZM10.5 10.9375C10.5 11.1971 10.423 11.4509 10.2788 11.6667C10.1346 11.8825 9.9296 12.0508 9.68977 12.1501C9.44994 12.2494 9.18604 12.2754 8.93144 12.2248C8.67684 12.1741 8.44298 12.0491 8.25942 11.8656C8.07587 11.682 7.95086 11.4482 7.90022 11.1936C7.84958 10.939 7.87557 10.6751 7.97491 10.4352C8.07425 10.1954 8.24247 9.99042 8.45831 9.8462C8.67415 9.70198 8.92791 9.62501 9.1875 9.62501C9.5356 9.62501 9.86944 9.76329 10.1156 10.0094C10.3617 10.2556 10.5 10.5894 10.5 10.9375ZM10.5 17.0625C10.5 17.3221 10.423 17.5759 10.2788 17.7917C10.1346 18.0075 9.9296 18.1758 9.68977 18.2751C9.44994 18.3744 9.18604 18.4004 8.93144 18.3498C8.67684 18.2991 8.44298 18.1741 8.25942 17.9906C8.07587 17.807 7.95086 17.5732 7.90022 17.3186C7.84958 17.064 7.87557 16.8001 7.97491 16.5602C8.07425 16.3204 8.24247 16.1154 8.45831 15.9712C8.67415 15.827 8.92791 15.75 9.1875 15.75C9.5356 15.75 9.86944 15.8883 10.1156 16.1344C10.3617 16.3806 10.5 16.7144 10.5 17.0625ZM20.125 10.9375C20.125 11.1971 20.048 11.4509 19.9038 11.6667C19.7596 11.8825 19.5546 12.0508 19.3148 12.1501C19.0749 12.2494 18.811 12.2754 18.5564 12.2248C18.3018 12.1741 18.068 12.0491 17.8844 11.8656C17.7009 11.682 17.5759 11.4482 17.5252 11.1936C17.4746 10.939 17.5006 10.6751 17.5999 10.4352C17.6992 10.1954 17.8675 9.99042 18.0833 9.8462C18.2992 9.70198 18.5529 9.62501 18.8125 9.62501C19.1606 9.62501 19.4944 9.76329 19.7406 10.0094C19.9867 10.2556 20.125 10.5894 20.125 10.9375Z" fill="#666666"/>
</svg>
